<svg width="881" height="306" viewBox="0 0 881 306" fill="none" xmlns="http://www.w3.org/2000/svg">
<g filter="url(#filter0_d_14_2)">
<path d="M238.102 52.4027L235.665 54.7307C233.752 56.5573 232.603 59.0408 232.449 61.6809L232.412 62.3302C232.252 65.057 233.329 67.7107 235.342 69.5563C237.037 71.1093 239.257 71.9624 241.555 71.9434L293.482 71.5156C296.755 71.4886 299.837 69.9745 301.859 67.4011C303.35 65.5041 304.16 63.1615 304.16 60.749V57.2618C304.16 55.4427 303.626 53.6635 302.624 52.1452C300.905 49.5403 297.992 47.9729 294.871 47.9729H249.153C245.037 47.9729 241.079 49.5595 238.102 52.4027Z" fill="url(#paint0_linear_14_2)"/>
</g>
<g filter="url(#filter1_d_14_2)">
<path d="M111.28 82.2414C110.233 73.4886 119.765 68.5325 125.667 74.7609L148.898 99.2746C152.051 102.602 156.888 102.966 160.216 100.127L185.329 78.6974C191.687 73.2728 201.044 80.0152 199.163 88.6652L191.732 122.834C190.748 127.361 193.014 132.114 197.037 133.957L226.672 147.532C234.201 150.981 233.997 162.657 226.363 165.155L194.478 175.59C190.591 176.862 188.175 180.989 188.708 185.445L193.085 222.007C194.133 230.76 184.602 235.716 178.699 229.487L155.468 204.974C152.314 201.646 147.478 201.282 144.15 204.121L119.037 225.55C112.679 230.975 103.321 224.233 105.202 215.583L112.634 181.414C113.618 176.887 111.351 172.134 107.328 170.291L77.6934 156.716C70.1643 153.267 70.3686 141.591 78.002 139.093L109.889 128.658C113.776 127.386 116.191 123.26 115.657 118.803L111.28 82.2414ZM151.791 112.844C132.303 112.844 116.504 130.371 116.504 151.992C116.504 173.613 132.303 191.14 151.791 191.14C171.279 191.14 187.078 173.613 187.078 151.992C187.078 130.371 171.28 112.844 151.791 112.844Z" fill="url(#paint1_linear_14_2)"/>
</g>
<g filter="url(#filter2_d_14_2)">
<path d="M218.875 247.17C218.066 247.734 217.25 248.29 216.425 248.835C193.557 263.93 166.08 270.439 138.883 267.202C134.941 266.733 131.041 266.062 127.199 265.199C127.568 265.282 127.939 265.363 128.31 265.442C127.56 265.282 126.813 265.114 126.068 264.939C103.843 259.714 83.5667 248.005 67.901 231.16C49.2695 211.126 38.3674 185.13 37.1354 157.798C35.9035 130.466 44.4221 103.57 61.1739 81.8992C77.9257 60.2285 101.824 45.187 128.617 39.4522C152.088 34.4284 176.447 36.8328 198.348 46.1924C203.497 48.3928 205.337 54.585 202.685 59.5166C200.04 64.4363 193.925 66.2292 188.75 64.1283C177.028 59.3701 164.497 57.002 151.897 57.1268C151.778 57.128 151.66 57.1281 151.542 57.1297L150.578 57.1486C144.648 57.2892 138.709 57.9825 132.838 59.2392C110.736 63.9698 91.0225 76.3777 77.2041 94.2539C63.3857 112.13 56.3593 134.316 57.3755 156.862C58.3918 179.408 67.385 200.852 82.754 217.378C98.123 233.903 118.871 244.439 141.305 247.109C158.923 249.205 176.683 246.342 192.633 238.987C192.655 238.976 192.678 238.967 192.7 238.957C197.77 236.614 203.962 238.122 206.829 242.915C209.687 247.693 208.159 253.921 203.174 256.377C208.613 253.737 213.865 250.663 218.875 247.17ZM249.19 109.498C254.303 107.222 260.338 109.51 262.157 114.802C269.893 137.309 270.502 161.753 263.76 184.767C256.48 209.621 241.072 231.281 220.067 246.327C220.823 245.786 221.572 245.235 222.316 244.675C231.054 238.091 238.738 230.364 245.203 221.764C241.845 226.214 235.425 226.533 231.271 222.812C227.113 219.087 226.808 212.726 230.065 208.194C236.391 199.445 241.236 189.624 244.317 179.109C249.71 160.697 249.399 141.175 243.555 123.078C241.835 117.753 244.078 111.774 249.19 109.498ZM201.346 234.41C201.339 234.415 201.332 234.419 201.325 234.423C201.332 234.419 201.339 234.415 201.346 234.41ZM211.617 227.381C211.592 227.4 211.568 227.42 211.543 227.439C211.568 227.42 211.592 227.4 211.617 227.381ZM264.233 183.095C264.278 182.932 264.325 182.77 264.369 182.606C264.374 182.591 264.375 182.574 264.379 182.559C264.331 182.738 264.283 182.917 264.233 183.095ZM265.868 128.18C265.863 128.157 265.86 128.134 265.855 128.111C265.835 128.015 265.812 127.92 265.791 127.824C265.817 127.942 265.842 128.061 265.868 128.18ZM57.2913 150.924C57.284 151.341 57.2791 151.757 57.2774 152.173C57.2791 151.757 57.2842 151.341 57.2913 150.924ZM57.3288 149.482C57.3356 149.271 57.3412 149.059 57.3493 148.848L57.3498 148.828C57.3413 149.046 57.3359 149.264 57.3288 149.482ZM85.9633 84.4052C85.5327 84.8266 85.1059 85.2514 84.6839 85.6804C85.1065 85.2508 85.5334 84.826 85.9633 84.4052ZM152.487 57.1218C152.54 57.1216 152.593 57.1212 152.647 57.1211C152.609 57.1212 152.572 57.1216 152.535 57.1218C152.519 57.1218 152.503 57.1217 152.487 57.1218ZM220.009 246.368C219.642 246.631 219.273 246.893 218.901 247.152C219.272 246.893 219.641 246.631 220.009 246.368ZM57.3115 149.976C57.3114 149.979 57.312 149.983 57.3119 149.986C57.3034 150.299 57.2968 150.612 57.2913 150.924C57.2967 150.608 57.303 150.292 57.3115 149.976Z" fill="url(#paint2_linear_14_2)"/>
</g>
<g filter="url(#filter3_d_14_2)">
<path d="M330.16 58.6459V59.9729C330.16 62.1762 331.198 64.2509 332.96 65.5729L336.16 67.9729C338.757 69.9202 341.915 70.9729 345.16 70.9729H649.16H775.004C776.105 70.9729 777.203 71.0866 778.281 71.3123L795.135 74.8397C797.133 75.258 799.033 76.0549 800.732 77.1875L809.38 82.9526C810.889 83.9588 812.216 85.2143 813.305 86.6654L823.328 100.029C824.538 101.644 825.433 103.473 825.964 105.42L829.215 117.34C829.511 118.426 829.692 119.539 829.754 120.663L830.429 132.818C830.581 135.543 830.033 138.261 828.838 140.713L821.16 156.473L795.16 197.473L786.66 210.473L779.783 219.929C779.037 220.955 778.172 221.888 777.206 222.709L770.135 228.719C769.155 229.552 768.079 230.264 766.928 230.839L758.039 235.284C755.817 236.395 753.367 236.973 750.883 236.973H584.66H432.16H308.66H249.288C245.044 236.973 240.974 238.659 237.974 241.659L235.158 244.475C233.239 246.394 232.16 248.998 232.16 251.713C232.16 252.55 232.263 253.386 232.466 254.198C232.919 256.01 233.858 257.671 235.179 258.991L236.525 260.338C237.936 261.749 239.598 262.883 241.426 263.683L243.594 264.631C245.616 265.516 247.8 265.973 250.007 265.973H690.66H758.906C760.729 265.973 762.538 265.661 764.256 265.052L775.651 261.008C776.655 260.652 777.62 260.197 778.533 259.649L785.641 255.385C786.651 254.779 787.59 254.063 788.443 253.251L796.559 245.522C797.291 244.824 797.956 244.059 798.544 243.235L812.66 223.473L829.66 197.973L844.16 176.473L852.274 161.597C852.863 160.518 853.325 159.375 853.652 158.19L856.584 147.561C856.966 146.175 857.16 144.744 857.16 143.306V119.139C857.16 117.702 856.966 116.27 856.584 114.884L853.478 103.625C853.266 102.858 852.998 102.108 852.675 101.381L846.064 86.5073C845.464 85.1575 844.681 83.8973 843.735 82.7626L835.905 73.3665C835.409 72.7716 834.871 72.2134 834.294 71.6964L822.398 61.0311C821.246 59.9978 819.949 59.1372 818.549 58.4762L804.332 51.7624C803.221 51.2378 802.054 50.8429 800.852 50.5855L790.318 48.3281C789.216 48.0919 788.092 47.9729 786.965 47.9729H340.833C338.15 47.9729 335.565 48.9835 333.594 50.8033C331.405 52.8238 330.16 55.6671 330.16 58.6459Z" fill="url(#paint3_linear_14_2)"/>
</g>
<g filter="url(#filter4_d_14_2)">
<path d="M323.016 123.015L310.468 134.434C309.635 135.193 309.16 136.267 309.16 137.393V207.973C309.16 210.182 310.951 211.973 313.16 211.973H330.16C332.369 211.973 334.16 210.182 334.16 207.973V130.948C334.16 130.047 333.856 129.173 333.297 128.466L329.361 123.491C328.603 122.532 327.447 121.973 326.224 121.973H325.708C324.712 121.973 323.752 122.344 323.016 123.015Z" fill="url(#paint4_linear_14_2)"/>
</g>
<g filter="url(#filter5_d_14_2)">
<circle cx="321.66" cy="89.4729" r="17.5" fill="url(#paint5_linear_14_2)"/>
</g>
<g filter="url(#filter6_d_14_2)">
<path d="M350.114 110.973H363.376C364.991 110.973 366.448 111.944 367.069 113.435L392.141 173.646C392.662 174.897 392.968 175.193 393.466 173.932C396.5 166.241 409.789 136.298 419.709 113.384C420.343 111.919 421.785 110.973 423.382 110.973H438.903C441.824 110.973 443.76 114.001 442.534 116.652L399.521 209.652C398.867 211.067 397.45 211.973 395.891 211.973H388.089C386.464 211.973 385 210.99 384.386 209.485L346.411 116.485C345.337 113.854 347.272 110.973 350.114 110.973Z" fill="url(#paint6_linear_14_2)"/>
</g>
<g filter="url(#filter7_d_14_2)">
<path d="M454.114 110.973H467.376C468.991 110.973 470.448 111.944 471.069 113.435L496.141 173.646C496.662 174.897 496.968 175.193 497.466 173.932C500.5 166.241 513.789 136.298 523.709 113.384C524.343 111.919 525.785 110.973 527.382 110.973H542.903C545.824 110.973 547.76 114.001 546.534 116.652L503.521 209.652C502.867 211.067 501.45 211.973 499.891 211.973H492.089C490.464 211.973 489 210.99 488.386 209.485L450.411 116.485C449.337 113.854 451.272 110.973 454.114 110.973Z" fill="url(#paint7_linear_14_2)"/>
</g>
<g filter="url(#filter8_d_14_2)">
<path d="M645.16 128.973V112.973C645.16 110.764 643.369 108.973 641.16 108.973H586.604C585.983 108.973 585.371 109.117 584.816 109.395L568.383 117.612C567.906 117.85 567.481 118.181 567.134 118.586L556.098 131.462C555.808 131.8 555.577 132.185 555.414 132.599L549.439 147.766C549.255 148.233 549.16 148.731 549.16 149.232V163.937C549.16 164.293 549.208 164.647 549.301 164.99L552.084 175.195C552.135 175.38 552.199 175.561 552.275 175.737L557.16 186.973L561.351 194.423C561.556 194.787 561.817 195.117 562.124 195.401L567.928 200.759C568.083 200.901 568.248 201.031 568.423 201.148L576.814 206.742C577.044 206.895 577.29 207.025 577.547 207.128L586.478 210.7C586.929 210.88 587.409 210.977 587.895 210.986L641.091 211.903C643.327 211.941 645.16 210.139 645.16 207.903V191.973C645.16 189.764 643.369 187.973 641.16 187.973H599.556C599.293 187.973 599.03 187.947 598.772 187.895L594.764 187.094C594.364 187.014 593.978 186.873 593.621 186.676L584.822 181.837C584.385 181.596 583.996 181.276 583.677 180.893L579.583 175.981C579.31 175.653 579.16 175.239 579.16 174.812C579.16 173.799 579.986 172.979 580.999 172.987L642.13 173.443C644.351 173.459 646.16 171.664 646.16 169.443V152.944C646.16 150.746 644.387 148.96 642.189 148.944L582.969 148.515C580.196 148.495 578.328 145.671 579.394 143.111C579.57 142.689 579.819 142.301 580.129 141.965L585.12 136.558C585.477 136.172 585.906 135.86 586.383 135.639L591.362 133.341C591.888 133.099 592.46 132.973 593.039 132.973H641.16C643.369 132.973 645.16 131.182 645.16 128.973Z" fill="url(#paint8_linear_14_2)"/>
</g>
<g filter="url(#filter9_d_14_2)">
<path d="M747.121 109.973H693.623C692.99 109.973 692.366 110.123 691.803 110.411L670.722 121.186C670.35 121.376 670.01 121.623 669.714 121.919L661.697 129.936C661.342 130.291 661.057 130.709 660.857 131.169L656.51 141.169C656.279 141.698 656.167 142.272 656.179 142.85L657.576 207.559C657.623 209.734 659.399 211.473 661.575 211.473H678.732C680.913 211.473 682.692 209.726 682.731 207.545L683.65 156.563C683.657 156.172 683.721 155.784 683.841 155.411L687.81 143.063C688.039 142.351 688.463 141.717 689.034 141.233L693.635 137.34C694.3 136.777 695.131 136.447 696.001 136.4L720.746 135.05C721.661 135 722.531 134.638 723.211 134.023L747.818 111.782C748.036 111.585 748.16 111.305 748.16 111.012C748.16 110.438 747.695 109.973 747.121 109.973Z" fill="url(#paint9_linear_14_2)"/>
</g>
<defs>
<filter id="filter0_d_14_2" x="227.496" y="41.0729" width="99.5637" height="51.7709" filterUnits="userSpaceOnUse" color-interpolation-filters="sRGB">
<feFlood flood-opacity="0" result="BackgroundImageFix"/>
<feColorMatrix in="SourceAlpha" type="matrix" values="0 0 0 0 0 0 0 0 0 0 0 0 0 0 0 0 0 0 127 0" result="hardAlpha"/>
<feOffset dx="9" dy="7"/>
<feGaussianBlur stdDeviation="6.95"/>
<feComposite in2="hardAlpha" operator="out"/>
<feColorMatrix type="matrix" values="0 0 0 0 0 0 0 0 0 0 0 0 0 0 0 0 0 0 0.25 0"/>
<feBlend mode="normal" in2="BackgroundImageFix" result="effect1_dropShadow_14_2"/>
<feBlend mode="normal" in="SourceGraphic" in2="effect1_dropShadow_14_2" result="shape"/>
</filter>
<filter id="filter1_d_14_2" x="67.2602" y="65.0729" width="187.845" height="188.102" filterUnits="userSpaceOnUse" color-interpolation-filters="sRGB">
<feFlood flood-opacity="0" result="BackgroundImageFix"/>
<feColorMatrix in="SourceAlpha" type="matrix" values="0 0 0 0 0 0 0 0 0 0 0 0 0 0 0 0 0 0 127 0" result="hardAlpha"/>
<feOffset dx="9" dy="7"/>
<feGaussianBlur stdDeviation="6.95"/>
<feComposite in2="hardAlpha" operator="out"/>
<feColorMatrix type="matrix" values="0 0 0 0 0 0 0 0 0 0 0 0 0 0 0 0 0 0 0.25 0"/>
<feBlend mode="normal" in2="BackgroundImageFix" result="effect1_dropShadow_14_2"/>
<feBlend mode="normal" in="SourceGraphic" in2="effect1_dropShadow_14_2" result="shape"/>
</filter>
<filter id="filter2_d_14_2" x="32.1186" y="29.9853" width="259.2" height="258.928" filterUnits="userSpaceOnUse" color-interpolation-filters="sRGB">
<feFlood flood-opacity="0" result="BackgroundImageFix"/>
<feColorMatrix in="SourceAlpha" type="matrix" values="0 0 0 0 0 0 0 0 0 0 0 0 0 0 0 0 0 0 127 0" result="hardAlpha"/>
<feOffset dx="9" dy="7"/>
<feGaussianBlur stdDeviation="6.95"/>
<feComposite in2="hardAlpha" operator="out"/>
<feColorMatrix type="matrix" values="0 0 0 0 0 0 0 0 0 0 0 0 0 0 0 0 0 0 0.25 0"/>
<feBlend mode="normal" in2="BackgroundImageFix" result="effect1_dropShadow_14_2"/>
<feBlend mode="normal" in="SourceGraphic" in2="effect1_dropShadow_14_2" result="shape"/>
</filter>
<filter id="filter3_d_14_2" x="227.26" y="41.0729" width="652.8" height="245.8" filterUnits="userSpaceOnUse" color-interpolation-filters="sRGB">
<feFlood flood-opacity="0" result="BackgroundImageFix"/>
<feColorMatrix in="SourceAlpha" type="matrix" values="0 0 0 0 0 0 0 0 0 0 0 0 0 0 0 0 0 0 127 0" result="hardAlpha"/>
<feOffset dx="9" dy="7"/>
<feGaussianBlur stdDeviation="6.95"/>
<feComposite in2="hardAlpha" operator="out"/>
<feColorMatrix type="matrix" values="0 0 0 0 0 0 0 0 0 0 0 0 0 0 0 0 0 0 0.25 0"/>
<feBlend mode="normal" in2="BackgroundImageFix" result="effect1_dropShadow_14_2"/>
<feBlend mode="normal" in="SourceGraphic" in2="effect1_dropShadow_14_2" result="shape"/>
</filter>
<filter id="filter4_d_14_2" x="304.26" y="115.073" width="52.8" height="117.8" filterUnits="userSpaceOnUse" color-interpolation-filters="sRGB">
<feFlood flood-opacity="0" result="BackgroundImageFix"/>
<feColorMatrix in="SourceAlpha" type="matrix" values="0 0 0 0 0 0 0 0 0 0 0 0 0 0 0 0 0 0 127 0" result="hardAlpha"/>
<feOffset dx="9" dy="7"/>
<feGaussianBlur stdDeviation="6.95"/>
<feComposite in2="hardAlpha" operator="out"/>
<feColorMatrix type="matrix" values="0 0 0 0 0 0 0 0 0 0 0 0 0 0 0 0 0 0 0.25 0"/>
<feBlend mode="normal" in2="BackgroundImageFix" result="effect1_dropShadow_14_2"/>
<feBlend mode="normal" in="SourceGraphic" in2="effect1_dropShadow_14_2" result="shape"/>
</filter>
<filter id="filter5_d_14_2" x="299.26" y="65.0729" width="62.8" height="62.8" filterUnits="userSpaceOnUse" color-interpolation-filters="sRGB">
<feFlood flood-opacity="0" result="BackgroundImageFix"/>
<feColorMatrix in="SourceAlpha" type="matrix" values="0 0 0 0 0 0 0 0 0 0 0 0 0 0 0 0 0 0 127 0" result="hardAlpha"/>
<feOffset dx="9" dy="7"/>
<feGaussianBlur stdDeviation="6.95"/>
<feComposite in2="hardAlpha" operator="out"/>
<feColorMatrix type="matrix" values="0 0 0 0 0 0 0 0 0 0 0 0 0 0 0 0 0 0 0.25 0"/>
<feBlend mode="normal" in2="BackgroundImageFix" result="effect1_dropShadow_14_2"/>
<feBlend mode="normal" in="SourceGraphic" in2="effect1_dropShadow_14_2" result="shape"/>
</filter>
<filter id="filter6_d_14_2" x="341.21" y="104.073" width="124.598" height="128.8" filterUnits="userSpaceOnUse" color-interpolation-filters="sRGB">
<feFlood flood-opacity="0" result="BackgroundImageFix"/>
<feColorMatrix in="SourceAlpha" type="matrix" values="0 0 0 0 0 0 0 0 0 0 0 0 0 0 0 0 0 0 127 0" result="hardAlpha"/>
<feOffset dx="9" dy="7"/>
<feGaussianBlur stdDeviation="6.95"/>
<feComposite in2="hardAlpha" operator="out"/>
<feColorMatrix type="matrix" values="0 0 0 0 0 0 0 0 0 0 0 0 0 0 0 0 0 0 0.25 0"/>
<feBlend mode="normal" in2="BackgroundImageFix" result="effect1_dropShadow_14_2"/>
<feBlend mode="normal" in="SourceGraphic" in2="effect1_dropShadow_14_2" result="shape"/>
</filter>
<filter id="filter7_d_14_2" x="445.21" y="104.073" width="124.598" height="128.8" filterUnits="userSpaceOnUse" color-interpolation-filters="sRGB">
<feFlood flood-opacity="0" result="BackgroundImageFix"/>
<feColorMatrix in="SourceAlpha" type="matrix" values="0 0 0 0 0 0 0 0 0 0 0 0 0 0 0 0 0 0 127 0" result="hardAlpha"/>
<feOffset dx="9" dy="7"/>
<feGaussianBlur stdDeviation="6.95"/>
<feComposite in2="hardAlpha" operator="out"/>
<feColorMatrix type="matrix" values="0 0 0 0 0 0 0 0 0 0 0 0 0 0 0 0 0 0 0.25 0"/>
<feBlend mode="normal" in2="BackgroundImageFix" result="effect1_dropShadow_14_2"/>
<feBlend mode="normal" in="SourceGraphic" in2="effect1_dropShadow_14_2" result="shape"/>
</filter>
<filter id="filter8_d_14_2" x="544.26" y="102.073" width="124.8" height="130.73" filterUnits="userSpaceOnUse" color-interpolation-filters="sRGB">
<feFlood flood-opacity="0" result="BackgroundImageFix"/>
<feColorMatrix in="SourceAlpha" type="matrix" values="0 0 0 0 0 0 0 0 0 0 0 0 0 0 0 0 0 0 127 0" result="hardAlpha"/>
<feOffset dx="9" dy="7"/>
<feGaussianBlur stdDeviation="6.95"/>
<feComposite in2="hardAlpha" operator="out"/>
<feColorMatrix type="matrix" values="0 0 0 0 0 0 0 0 0 0 0 0 0 0 0 0 0 0 0.25 0"/>
<feBlend mode="normal" in2="BackgroundImageFix" result="effect1_dropShadow_14_2"/>
<feBlend mode="normal" in="SourceGraphic" in2="effect1_dropShadow_14_2" result="shape"/>
</filter>
<filter id="filter9_d_14_2" x="651.278" y="103.073" width="119.782" height="129.3" filterUnits="userSpaceOnUse" color-interpolation-filters="sRGB">
<feFlood flood-opacity="0" result="BackgroundImageFix"/>
<feColorMatrix in="SourceAlpha" type="matrix" values="0 0 0 0 0 0 0 0 0 0 0 0 0 0 0 0 0 0 127 0" result="hardAlpha"/>
<feOffset dx="9" dy="7"/>
<feGaussianBlur stdDeviation="6.95"/>
<feComposite in2="hardAlpha" operator="out"/>
<feColorMatrix type="matrix" values="0 0 0 0 0 0 0 0 0 0 0 0 0 0 0 0 0 0 0.25 0"/>
<feBlend mode="normal" in2="BackgroundImageFix" result="effect1_dropShadow_14_2"/>
<feBlend mode="normal" in="SourceGraphic" in2="effect1_dropShadow_14_2" result="shape"/>
</filter>
<linearGradient id="paint0_linear_14_2" x1="268.16" y1="47.9729" x2="268.16" y2="71.9729" gradientUnits="userSpaceOnUse">
<stop offset="0.403846" stop-color="#266752"/>
<stop offset="1" stop-color="#FF5C3F"/>
</linearGradient>
<linearGradient id="paint1_linear_14_2" x1="152.183" y1="71.9729" x2="152.183" y2="232.275" gradientUnits="userSpaceOnUse">
<stop offset="0.403846" stop-color="#266752"/>
<stop offset="1" stop-color="#FF5C3F"/>
</linearGradient>
<linearGradient id="paint2_linear_14_2" x1="105.542" y1="46.9902" x2="199.523" y2="258.075" gradientUnits="userSpaceOnUse">
<stop offset="0.403846" stop-color="#266752"/>
<stop offset="1" stop-color="#FF5C3F"/>
</linearGradient>
<linearGradient id="paint3_linear_14_2" x1="544.66" y1="47.9729" x2="544.66" y2="265.973" gradientUnits="userSpaceOnUse">
<stop offset="0.403846" stop-color="#266752"/>
<stop offset="1" stop-color="#FF5C3F"/>
</linearGradient>
<linearGradient id="paint4_linear_14_2" x1="321.66" y1="121.973" x2="321.66" y2="211.973" gradientUnits="userSpaceOnUse">
<stop offset="0.403846" stop-color="#266752"/>
<stop offset="1" stop-color="#FF5C3F"/>
</linearGradient>
<linearGradient id="paint5_linear_14_2" x1="321.66" y1="71.9729" x2="321.66" y2="106.973" gradientUnits="userSpaceOnUse">
<stop offset="0.403846" stop-color="#266752"/>
<stop offset="1" stop-color="#FF5C3F"/>
</linearGradient>
<linearGradient id="paint6_linear_14_2" x1="394.66" y1="110.973" x2="394.66" y2="211.973" gradientUnits="userSpaceOnUse">
<stop offset="0.403846" stop-color="#266752"/>
<stop offset="1" stop-color="#FF5C3F"/>
</linearGradient>
<linearGradient id="paint7_linear_14_2" x1="498.66" y1="110.973" x2="498.66" y2="211.973" gradientUnits="userSpaceOnUse">
<stop offset="0.403846" stop-color="#266752"/>
<stop offset="1" stop-color="#FF5C3F"/>
</linearGradient>
<linearGradient id="paint8_linear_14_2" x1="597.66" y1="108.973" x2="597.66" y2="211.973" gradientUnits="userSpaceOnUse">
<stop offset="0.403846" stop-color="#266752"/>
<stop offset="1" stop-color="#FF5C3F"/>
</linearGradient>
<linearGradient id="paint9_linear_14_2" x1="702.16" y1="109.973" x2="702.16" y2="211.473" gradientUnits="userSpaceOnUse">
<stop offset="0.403846" stop-color="#266752"/>
<stop offset="1" stop-color="#FF5C3F"/>
</linearGradient>
</defs>
</svg>
